# xmcd
# 
# Track frame offsets:
#     150
#     16437
#     34576
#     57115
#     79078
# 
# Disc length: 1308
# 
# Revision: 0
# Processed by: cddbd v1.5.2PL0 Copyright (c) Steve Scherf et al.
# Submitted via: fre:ac v1.0.17
# 
DISCID=31051a05
DTITLE=I Love Rich - Season of the Rich
DYEAR=2008
DGENRE=Heavy Metal
TTITLE0=Let's Fuck All Night
TTITLE1=I'm Only Here 'Cause Your Sister Said No
TTITLE2=Everybody's Getting Laid Tonight
TTITLE3=I'll Be Around
TTITLE4=Rise Up For Rock and Roll
EXTD=
EXTT0=
EXTT1=
EXTT2=
EXTT3=
EXTT4=
PLAYORDER=
